
<svg xmlns="http://www.w3.org/2000/svg" version="1.1" xmlns:xlink="http://www.w3.org/1999/xlink" preserveAspectRatio="none" x="0px" y="0px" width="1400px" height="1400px" viewBox="0 0 1400 1400">
<defs>
<image id="FL_9a91c796_527b_48bf_84a3_f8b159917d52_jpg" x="0" y="0" width="640" height="480" xlink:href="./images/FL_9a91c796_527b_48bf_84a3_f8b159917d52_jpg.jpg"/>

<image id="pink_robin_1_jpg" x="0" y="0" width="640" height="427" xlink:href="./images/pink_robin_1_jpg.jpg"/>

<g id="Layer1_0_FILL">
<path fill="#FF8CFF" stroke="none" d="
M -123.6 975.75
Q -76.9 947.8 -16.7 843.2 -195.85 888.25 -248.2 780.8 -346.15 843.05 -497.05 848.55 -420.45 973.75 -354.8 991.2 -289.2 1008.65 -232.95 1004.65 -170.35 1003.7 -123.6 975.75
M 2302 348.65
Q 2363.3 309.65 2372.55 256.95 2186.7 304.85 2141.05 191.15 2058.6 248.9 1929 260.7 1905.9 262.8 1885.25 264.55 1897.3 312.5 1954 348.65 2026.15 394.6 2128.05 394.6 2229.95 394.6 2302 348.65
M 2454.95 184.35
Q 2444.55 174.8 2433.35 166.75 2411.2 150.85 2386.15 140.25 2386.15 140.35 2386.15 140.45 2391.25 163.25 2391.7 186.65 2408.75 186.9 2433.15 185.7 2443.3 185.1 2454.95 184.35 Z"/>

<path fill="#33A656" fill-opacity="0.4666666666666667" stroke="none" d="
M 1719.4 1135.75
Q 1681.15 1109.15 1624 1112.65 1566.8 1116.15 1532.6 1141.2 1498.4 1166.25 1501.25 1202.4 1504.1 1238.55 1539.65 1264.9 1575.2 1291.25 1627.25 1291.25 1679.25 1291.25 1716.25 1265.35 1753.25 1239.45 1755.45 1200.9 1757.65 1162.3 1719.4 1135.75
M 2508.1 427.6
Q 2502.7 422.65 2496.1 418.1 2457.85 391.5 2400.7 395 2343.5 398.5 2309.3 423.55 2306.6 425.55 2304.1 427.6
L 2508.1 427.6
M 2164.3 541.5
Q 2166.1212890625 509.54609375 2140.2 485.85
L 1936.25 485.85
Q 1907.4763671875 509.7216796875 1910.1 543 1912.95 579.15 1948.5 605.5 1984.05 631.85 2036.1 631.85 2088.1 631.85 2125.1 605.95 2162.1 580.05 2164.3 541.5 Z"/>

<path fill="#333333" stroke="none" d="
M 1824.9 288.2
Q 1854.9 274.95 1875.95 264.9 1833.75 272.1 1683.7 273.25 1618.9 287.75 1550 315.1 1610.75 327.5 1679.65 324.65 1748.65 321.8 1824.9 288.2
M 2014.55 -16.2
Q 2006.55 -11.25 1999.15 -5.85 1991.3 -0.65 1950.05 39 1937.65 50.85 1925.55 65.6 1897.3 100.1 1870.8 150.5 1833.05 222.2 1610.15 269.9 1698.65 264.8 1749.75 264.65 1791.75 264.55 1886.75 256.55 1907.4 254.8 1930.5 252.7 2060.1 240.9 2142.55 183.15 2188.2 296.85 2374.05 248.95 2374.25 248.85 2374.5 248.8 2383.2 215.5 2382.75 183.3 2382.35 159.85 2376.95 137.15 2369.5 104.5 2351.95 72.85 2350.65 70.5 2349.25 68.15
L 2349.5 67.75
Q 2315.05 7.5 2257.2 -23.4 2247.1 -28.8 2236.3 -33.25 2222.4 -39.05 2207.35 -43.35 2126.7 -66.55 2052.25 -35.5 2038.7 -29.9 2025.25 -22.5 2019.75 -19.45 2014.55 -16.2
M 2304.45 146.7
Q 2300.75 132.2 2287.9 124.85 2274.95 117.35 2260.55 121.25 2249.45 124.25 2242.55 132.85 2240.65 135.2 2239.05 138 2236.75 141.8 2235.6 145.8 2235.5 146.05 2235.45 146.3 2235.4 146.05 2235.35 145.8 2233.15 133.25 2239.65 122.1 2241 119.8 2242.55 117.8 2249.75 108.5 2261.7 105.35 2270.25 103 2278.25 104.7 2283.8 105.85 2289.05 108.95 2293.25 111.4 2296.55 114.6 2303.2 121.15 2305.8 130.9 2308.7 141.4 2305.4 150.95 2305.2 148.7 2304.45 146.7 Z"/>

<path fill="#337762" fill-opacity="0.5372549019607843" stroke="none" d="
M 961.9 -44.4
Q 958.4 -38.4 959.7 -31.6 960.3 -33.85 961.6 -36 965.45 -42.8 972.95 -44.85 980.55 -46.9 987.4 -42.95 994.2 -39.05 996.15 -31.4 996.55 -30.35 996.65 -29.15 998.4 -34.2 996.85 -39.75 994.8 -47.4 988 -51.35 981.2 -55.35 973.55 -53.25 965.9 -51.2 961.9 -44.4 Z"/>

<path fill="#FF8CFF" fill-opacity="0.5372549019607843" stroke="none" d="
M 724.05 -100.55
Q 711.1 -104.95 699.2 -108.7 702 -73.3 743.55 -47.8 788.15 -20.4 851.2 -20.4 914.25 -20.4 958.85 -47.8 985.25 -64 996.05 -84.15 995.85 -84.05 995.65 -83.9 991.05 -80.65 939.7 -101.1 888.35 -121.55 868.75 -118.6
L 846 -103.45
Q 801.9 -74.1 724.05 -100.55 Z"/>

<path fill="#333333" fill-opacity="0.5372549019607843" stroke="none" d="
M 814.5 -252.35
Q 822.7 -251 833.35 -245.1 843.5 -239.45 851.85 -230.75 867.2 -214.65 874.8 -190.3 880.3 -172.7 879.8 -155.45 879.35 -138.2 872.85 -123.95 893.35 -124.55 939.7 -106.1 991.05 -85.65 995.65 -88.9 995.85 -89.05 997.2 -90.65 998.5 -92.3 1001.45 -96.4 1004.35 -100.55 1012.4 -120.35 1016.35 -130.15 1018.6 -136.65 1020.9 -143.3 1021.4 -146.5 1021.55 -146.3 1022 -148.85 1022.65 -152.75 1024 -160.7 1024 -160.8 1024 -160.9 1025.3 -169.05 1025.9 -174.65 1030 -215.15 998.25 -244.65 962.05 -278.3 882.5 -282.35 834.8 -284.8 774.5 -254.35 775.2 -254.4 775.9 -254.4 777.45 -254.4 784.35 -254.65 791.2 -254.9 798.75 -254.3 806.3 -253.75 814.5 -252.35
M 933.45 -177.6
Q 934.15 -186.65 940.65 -193.1 947.95 -200.4 958.35 -200.4 968.8 -200.4 976.1 -193.1 983.4 -185.75 983.4 -175.35 983.45 -167.75 979.55 -161.9 979.8 -163.5 979.7 -164.95 979.8 -175.35 972.5 -182.6 965.15 -189.95 954.8 -189.85 944.6 -189.85 937.35 -182.5 935 -180.25 933.45 -177.6
M 853.6 -223.15
Q 840.15 -239.65 825.15 -245.35 810.15 -251.05 797.9 -251.75 785.65 -252.5 779.55 -252.15 773.45 -251.8 771.65 -251.15 769.85 -250.55 760.7 -245.95 728.85 -230 688.3 -199.1 625.3 -151.2 603.5 -135.3 639.05 -132.55 699.05 -113.75 699.1 -113.75 699.2 -113.7 711.1 -109.95 724.05 -105.55 801.9 -79.1 846 -108.45
L 868.75 -124.75 868.3 -124
Q 868.4 -124.15 869.35 -125.6 872.95 -130.75 874.7 -140.15 878.75 -161.9 873.15 -183.95 867.55 -206 853.6 -223.15 Z"/>
</g>

<g id="Logo_idee_1_0_Layer1_0_FILL">
<path fill="#333333" stroke="none" d="
M 300.5 521.55
Q 302.55 521.65 304.6 521.75 339.65 523.05 377.75 515.3 418.15 507 460.05 478.75 476.6 467.65 488.2 459.35 463.9 467.85 375.7 482.75 340.8 497.2 304.6 519.05 302.55 520.3 300.5 521.55
M 672.25 563.6
Q 682.75 571.7 687.5 581.6
L 687.5 581.55
Q 687.75 572.4 684 564.55 683.55 563.5 682.85 562.35 678.4 554.15 669.5 547.3 653.35 535.05 631.05 533.85 630.65 533.85 630.15 533.85 629 533.8 627.8 533.75 626.45 533.75 625.1 533.8 598.85 534.25 580.05 548.9 561.25 563.55 561.05 583.75 565.65 574.4 575.25 566.55 576.05 565.9 576.75 565.35 577.6 564.65 578.35 564.15 597.2 550.2 622.95 549.25
L 624.4 549.25
Q 624.55 549.25 624.75 549.25 626.15 549.25 627.45 549.25 629.2 549.25 630.95 549.3 654.85 550.4 672.25 563.6
M 672 546.05
Q 680.8 552.8 685.25 561.05 685.9 562.3 686.5 563.35 695.85 570.9 700.2 580.05 700.55 559.85 682.25 545.85 664.95 532.6 640.45 532.3 639.1 532.3 637.75 532.3 635.15 532.3 632.6 532.6 633.05 532.6 633.55 532.55 655.85 533.7 672 546.05
M 652.6 531.4
Q 651.25 531.5 649.85 531.5 647.35 531.55 644.75 531.7 645.25 531.75 645.7 531.7 668 532.9 684.1 545.2 692.9 551.9 697.45 560.15 698.1 561.35 698.6 562.5 707.85 570.1 712.3 579.3 712.65 559 694.4 545.05 677.05 531.75 652.6 531.4
M 748.7 291.45
L 748.8 291.2
Q 723.4 256.7 686.65 242.85 680.15 240.45 673.45 238.65 664.75 236.3 655.45 235.05 606 228.15 564.9 254.6 557.3 259.4 550.05 265.35 547.1 267.75 544.3 270.2 540 274.05 536.1 278.15 532.3 281.7 515.3 305.05 514.45 306.2 513.6 307.35 512.3 309.05 511.05 310.85 504.85 319.4 499 329.8 485.35 354.1 474 388.2 458 436.6 330.9 487.5 382.5 476 412.65 471.1 437.4 467.05 492.6 453.05 504.6 450 518 446.55 593.4 426.9 636.9 383 673.65 449.9 778.95 402.35 779.05 402.3 779.15 402.25 781.45 380.55 778.45 360.35 776.15 345.75 771.05 332.05 766.45 319.35 759.35 307.35 758.65 306.2 758 305.05 754.55 299.55 750.65 294.2 749.8 292.85 748.7 291.45
M 701.1 333.1
Q 694.75 336.05 691.5 342.1 690.65 343.7 689.9 345.6 688.85 348.25 688.5 350.75 688.403125 350.9921875 688.45 351.2 688.396875 350.99375 688.3 350.8 686 343.2 688.85 335.6 689.45 334.05 690.2 332.65 693.55 326.1 700.35 323.05 705.15 320.75 710.15 321.05 713.45 321.3 716.85 322.7 719.45 323.8 721.7 325.5 726.2 328.95 728.6 334.9 731.25 341.15 730.1 347.4 729.7 346.05 729.15 344.85 725.75 336.2 717.55 332.8 709.15 329.3 701.1 333.1 Z"/>

<path fill="#FF3399" stroke="none" d="
M 745.05 472.85
Q 766.45 450.15 778.8 408.75 672.65 454.85 636.1 391.8 593.15 433.3 517.8 453 504.35 456.4 492.4 459.5 531.25 485.25 572.45 502.2 613.5 519.1 660.1 513.75 706.6 508.4 745.05 472.85
M 806.85 345.5
Q 792.35 337.6 776.65 333.3 776.65 333.4 776.65 333.45 781.7 347.3 784 361.9 799.65 362.55 807.95 359.65 816.1 356.7 821 354.5 814.1 349.5 806.85 345.5 Z"/>
</g>
</defs>

<g transform="matrix( 1, 0, 0, 1, 1771,-465) ">
<use xlink:href="#FL_9a91c796_527b_48bf_84a3_f8b159917d52_jpg"/>
</g>

<g transform="matrix( 1, 0, 0, 1, -701,5) ">
<use xlink:href="#pink_robin_1_jpg"/>
</g>

<g transform="matrix( 1, 0, 0, 1, 0,0) ">
<use xlink:href="#Layer1_0_FILL"/>
</g>

<g transform="matrix( 2.44512939453125, 0, 0, 2.44512939453125, -648.9,-437.75) ">
<g transform="matrix( 1, 0, 0, 1, 0,0) ">
<use xlink:href="#Logo_idee_1_0_Layer1_0_FILL"/>
</g>

<g transform="matrix( 1, 0, 0, 1, 282.8,557.6) ">
<clipPath id="Mask_Mask_1">
<rect x="-2" y="-2" width="505.8" height="126.9" fill="#FFFFFF" stroke="none"/>
</clipPath>

<text clip-path="url(#Mask_Mask_1)" writing-mode="lr"><tspan x="17.85" y="96.7" baseline-shift="0%" font-family="PT Sans" font-size="95" fill="#FF3399" xml:space="preserve">Robin</tspan><tspan baseline-shift="0%" font-family="PT Sans" font-size="95" fill="#333333" xml:space="preserve">track</tspan></text>
</g>
</g>
</svg>
