<svg xmlns="http://www.w3.org/2000/svg" xmlns:xlink="http://www.w3.org/1999/xlink" width="1400" height="1400" preserveAspectRatio="none"><defs><g id="c"><path fill="#FF8CFF" d="M-123.6 975.75Q-76.9 947.8-16.7 843.2q-179.15 45.05-231.5-62.4-97.95 62.25-248.85 67.75 76.6 125.2 142.25 142.65 65.6 17.45 121.85 13.45 62.6-.95 109.35-28.9M2302 348.65q61.3-39 70.55-91.7-185.85 47.9-231.5-65.8Q2058.6 248.9 1929 260.7q-23.1 2.1-43.75 3.85 12.05 47.95 68.75 84.1 72.15 45.95 174.05 45.95T2302 348.65m152.95-164.3q-10.4-9.55-21.6-17.6-22.15-15.9-47.2-26.5v.2q5.1 22.8 5.55 46.2 17.05.25 41.45-.95 10.15-.6 21.8-1.35z"/><path fill="#33A656" fill-opacity=".46666667" d="M1719.4 1135.75q-38.25-26.6-95.4-23.1-57.2 3.5-91.4 28.55t-31.35 61.2q2.85 36.15 38.4 62.5t87.6 26.35q52 0 89-25.9t39.2-64.45q2.2-38.6-36.05-65.15m788.7-708.15q-5.4-4.95-12-9.5-38.25-26.6-95.4-23.1-57.2 3.5-91.4 28.55-2.7 2-5.2 4.05h204m-343.8 113.9q1.82128906-31.95390625-24.1-55.65h-203.95q-28.77363281 23.87167969-26.15 57.15 2.85 36.15 38.4 62.5t87.6 26.35q52 0 89-25.9t39.2-64.45z"/><path fill="#333" d="M1824.9 288.2q30-13.25 51.05-23.3-42.2 7.2-192.25 8.35-64.8 14.5-133.7 41.85 60.75 12.4 129.65 9.55 69-2.85 145.25-36.45m189.65-304.4q-8 4.95-15.4 10.35-7.85 5.2-49.1 44.85-12.4 11.85-24.5 26.6-28.25 34.5-54.75 84.9-37.75 71.7-260.65 119.4 88.5-5.1 139.6-5.25 42-.1 137-8.1 20.65-1.75 43.75-3.85 129.6-11.8 212.05-69.55 45.65 113.7 231.5 65.8.2-.1.45-.15 8.7-33.3 8.25-65.5-.4-23.45-5.8-46.15-7.45-32.65-25-64.3-1.3-2.35-2.7-4.7l.25-.4q-34.45-60.25-92.3-91.15-10.1-5.4-20.9-9.85-13.9-5.8-28.95-10.1-80.65-23.2-155.1 7.85-13.55 5.6-27 13-5.5 3.05-10.7 6.3m289.9 162.9q-3.7-14.5-16.55-21.85-12.95-7.5-27.35-3.6-11.1 3-18 11.6-1.9 2.35-3.5 5.15-2.3 3.8-3.45 7.8-.1.25-.15.5l-.1-.5q-2.2-12.55 4.3-23.7 1.35-2.3 2.9-4.3 7.2-9.3 19.15-12.45 8.55-2.35 16.55-.65 5.55 1.15 10.8 4.25 4.2 2.45 7.5 5.65 6.65 6.55 9.25 16.3 2.9 10.5-.4 20.05-.2-2.25-.95-4.25z"/><path fill="#337762" fill-opacity=".5372549" d="M961.9-44.4q-3.5 6-2.2 12.8.6-2.25 1.9-4.4 3.85-6.8 11.35-8.85 7.6-2.05 14.45 1.9 6.8 3.9 8.75 11.55.4 1.05.5 2.25 1.75-5.05.2-10.6-2.05-7.65-8.85-11.6-6.8-4-14.45-1.9-7.65 2.05-11.65 8.85z"/><path fill="#FF8CFF" fill-opacity=".5372549" d="M724.05-100.55q-12.95-4.4-24.85-8.15 2.8 35.4 44.35 60.9 44.6 27.4 107.65 27.4 63.05 0 107.65-27.4 26.4-16.2 37.2-36.35-.2.1-.4.25-4.6 3.25-55.95-17.2t-70.95-17.5L846-103.45q-44.1 29.35-121.95 2.9z"/><path fill="#333" fill-opacity=".5372549" d="M814.5-252.35q8.2 1.35 18.85 7.25 10.15 5.65 18.5 14.35 15.35 16.1 22.95 40.45 5.5 17.6 5 34.85-.45 17.25-6.95 31.5 20.5-.6 66.85 17.85 51.35 20.45 55.95 17.2.2-.15 1.55-1.75 1.3-1.65 4.25-5.75 2.9-4.15 10.95-23.95 3.95-9.8 6.2-16.3 2.3-6.65 2.8-9.85.15.2.6-2.35.65-3.9 2-11.85v-.2q1.3-8.15 1.9-13.75 4.1-40.5-27.65-70-36.2-33.65-115.75-37.7-47.7-2.45-108 28 .7-.05 1.4-.05 1.55 0 8.45-.25 6.85-.25 14.4.35 7.55.55 15.75 1.95m118.95 74.75q.7-9.05 7.2-15.5 7.3-7.3 17.7-7.3 10.45 0 17.75 7.3 7.3 7.35 7.3 17.75.05 7.6-3.85 13.45.25-1.6.15-3.05.1-10.4-7.2-17.65-7.35-7.35-17.7-7.25-10.2 0-17.45 7.35-2.35 2.25-3.9 4.9m-79.85-45.55q-13.45-16.5-28.45-22.2-15-5.7-27.25-6.4-12.25-.75-18.35-.4-6.1.35-7.9 1-1.8.6-10.95 5.2-31.85 15.95-72.4 46.85-63 47.9-84.8 63.8 35.55 2.75 95.55 21.55.05 0 .15.05 11.9 3.75 24.85 8.15Q801.9-79.1 846-108.45l22.75-16.3-.45.75q.1-.15 1.05-1.6 3.6-5.15 5.35-14.55 4.05-21.75-1.55-43.8-5.6-22.05-19.55-39.2z"/></g><g id="d"><path fill="#333" d="M300.5 521.55l4.1.2q35.05 1.3 73.15-6.45 40.4-8.3 82.3-36.55 16.55-11.1 28.15-19.4-24.3 8.5-112.5 23.4-34.9 14.45-71.1 36.3l-4.1 2.5m371.75 42.05q10.5 8.1 15.25 18v-.05q.25-9.15-3.5-17-.45-1.05-1.15-2.2-4.45-8.2-13.35-15.05-16.15-12.25-38.45-13.45h-.9q-1.15-.05-2.35-.1-1.35 0-2.7.05-26.25.45-45.05 15.1-18.8 14.65-19 34.85 4.6-9.35 14.2-17.2.8-.65 1.5-1.2.85-.7 1.6-1.2 18.85-13.95 44.6-14.9h4.5q1.75 0 3.5.05 23.9 1.1 41.3 14.3m-.25-17.55q8.8 6.75 13.25 15 .65 1.25 1.25 2.3 9.35 7.55 13.7 16.7.35-20.2-17.95-34.2-17.3-13.25-41.8-13.55h-2.7q-2.6 0-5.15.3.45 0 .95-.05 22.3 1.15 38.45 13.5m-19.4-14.65q-1.35.1-2.75.1-2.5.05-5.1.2.5.05.95 0 22.3 1.2 38.4 13.5 8.8 6.7 13.35 14.95.65 1.2 1.15 2.35 9.25 7.6 13.7 16.8.35-20.3-17.9-34.25-17.35-13.3-41.8-13.65m96.1-239.95l.1-.25q-25.4-34.5-62.15-48.35-6.5-2.4-13.2-4.2-8.7-2.35-18-3.6-49.45-6.9-90.55 19.55-7.6 4.8-14.85 10.75-2.95 2.4-5.75 4.85-4.3 3.85-8.2 7.95-3.8 3.55-20.8 26.9l-1.7 2.3q-1.3 1.7-2.55 3.5-6.2 8.55-12.05 18.95-13.65 24.3-25 58.4-16 48.4-143.1 99.3 51.6-11.5 81.75-16.4 24.75-4.05 79.95-18.05 12-3.05 25.4-6.5Q593.4 426.9 636.9 383q36.75 66.9 142.05 19.35l.2-.1q2.3-21.7-.7-41.9-2.3-14.6-7.4-28.3-4.6-12.7-11.7-24.7-.7-1.15-1.35-2.3-3.45-5.5-7.35-10.85-.85-1.35-1.95-2.75m-47.6 41.65q-6.35 2.95-9.6 9-.85 1.6-1.6 3.5-1.05 2.65-1.4 5.15-.096875.2421875-.05.45-.053125-.20625-.15-.4-2.3-7.6.55-15.2.6-1.55 1.35-2.95 3.35-6.55 10.15-9.6 4.8-2.3 9.8-2 3.3.25 6.7 1.65 2.6 1.1 4.85 2.8 4.5 3.45 6.9 9.4 2.65 6.25 1.5 12.5-.4-1.35-.95-2.55-3.4-8.65-11.6-12.05-8.4-3.5-16.45.3z"/><path fill="#F39" d="M745.05 472.85q21.4-22.7 33.75-64.1-106.15 46.1-142.7-16.95-42.95 41.5-118.3 61.2-13.45 3.4-25.4 6.5 38.85 25.75 80.05 42.7 41.05 16.9 87.65 11.55 46.5-5.35 84.95-40.9m61.8-127.35q-14.5-7.9-30.2-12.2v.15q5.05 13.85 7.35 28.45 15.65.65 23.95-2.25 8.15-2.95 13.05-5.15-6.9-5-14.15-9z"/></g></defs><use transform="translate(1771 -465)" xlink:href="#a"/><use transform="translate(-701 5)" xlink:href="#b"/><use xlink:href="#c"/><use width="100%" height="100%" transform="matrix(2.44513 0 0 2.44513 -684.49322 -396.22458)" xlink:href="#d"/><g transform="matrix(2.44513 0 0 2.44513 6.98937432 967.17957344)"><clipPath id="e"><path fill="#fff" d="M-2-2h505.79999v126.9H-2z"/></clipPath><g aria-label="Robintrack" clip-path="url(#e)" font-family="PT Sans" font-size="95"><path fill="#f39" d="M25.925 30.864997q3.61-.665 8.265-1.045 4.75-.38 8.645-.38 4.37 0 8.265.95 3.99.95 6.935 3.135 3.04 2.185 4.845 5.7 1.805 3.515 1.805 8.55 0 7.79-4.275 12.635t-10.83 6.46l4.56 3.515 16.53 26.315h-9.215l-18.335-28.69-9.31-1.425v30.115h-7.885zm17.1 5.415H40.46q-1.33 0-2.565.095-1.235.095-2.375.19-1.045.095-1.71.285v24.51h7.41q6.555 0 10.83-3.23t4.275-10.07q0-5.13-3.515-8.455t-9.785-3.325zM74.458125 72.949997q0-12.065 5.32-18.43 5.415-6.46 15.485-6.46 5.320005 0 9.215005 1.805 3.99 1.71 6.555 5.035 2.565 3.23 3.8 7.885 1.235 4.56 1.235 10.165 0 12.065-5.415 18.525-5.32 6.365-15.390005 6.365-5.32 0-9.31-1.71-3.895-1.805-6.46-5.035-2.565-3.325-3.8-7.885-1.235-4.655-1.235-10.26zm7.885 0q0 3.61.665 6.935.76 3.325 2.28 5.795 1.52 2.47 3.99 3.99t5.985 1.52q12.920005.095 12.920005-18.24 0-3.705-.76-7.03-.665-3.325-2.185-5.795-1.52-2.47-3.99-3.895-2.470005-1.52-5.985005-1.52-12.92-.095-12.92 18.24zM127.95797 30.199997h7.6v23.655h.38q2.185-2.755 5.51-4.275 3.42-1.52 7.41-1.52 9.215 0 13.775 5.89 4.655 5.89 4.655 18.24 0 12.445-6.08 18.905-6.08 6.46-17.1 6.46-5.32 0-9.69-1.14-4.275-1.14-6.46-2.47zm19.57 24.51q-4.75 0-7.695 2.66-2.945 2.66-4.275 7.505v23.94q1.805 1.045 4.37 1.615 2.565.475 5.32.475 6.46 0 10.26-4.56 3.895-4.56 3.895-14.25 0-3.705-.665-6.935-.665-3.23-2.09-5.51-1.425-2.28-3.705-3.61-2.185-1.33-5.415-1.33zM180.78391 49.199997h7.6v47.5h-7.6zm-1.615-14.44q0-2.185 1.425-3.705 1.52-1.615 3.8-1.615t3.895 1.615q1.615 1.52 1.615 3.705t-1.615 3.61q-1.615 1.425-3.895 1.425-2.28 0-3.8-1.425-1.425-1.425-1.425-3.61zM235.08383 96.699997v-27.075q0-7.41-2.185-11.115-2.09-3.8-7.79-3.8-5.035 0-8.36 2.755-3.23 2.66-4.56 6.745v32.49h-7.6v-47.5h5.32l1.425 5.795h.38q2.28-3.04 6.08-4.94 3.895-1.995 9.215-1.995 3.895 0 6.84.95 2.945.855 4.845 3.135 1.995 2.28 2.945 6.175 1.045 3.8 1.045 9.69v28.69z" baseline-shift="0%"/><path fill="#333" d="M250.27195 49.199997h7.41v-9.405l7.6-2.185v11.59h12.92v6.65h-12.92v26.315q0 4.94 1.235 7.03 1.235 1.995 4.18 1.995 2.47 0 4.18-.475 1.71-.57 3.8-1.425l1.71 5.795q-2.565 1.235-5.605 1.995-3.04.76-6.555.76-5.795 0-8.17-3.23-2.375-3.325-2.375-11.02v-27.74h-7.41zM311.24711 56.514997q-2.85-.95-5.415-.95-4.085 0-6.46 2.28-2.375 2.185-2.945 5.605v33.25h-7.6v-47.5h5.32l1.425 5.795h.38q1.805-3.23 4.275-4.94 2.565-1.805 6.46-1.805 2.755 0 6.175.95zM320.35227 52.714997q3.61-2.185 8.36-3.23 4.845-1.045 10.07-1.045 4.94 0 7.885 1.33 3.04 1.33 4.56 3.515 1.615 2.09 2.09 4.655.57 2.565.57 5.13 0 5.7-.285 11.115t-.285 10.26q0 3.515.285 6.65.285 3.135 1.045 5.795h-5.605l-1.995-6.65h-.475q-.855 1.33-2.185 2.66-1.235 1.235-3.04 2.28-1.805.95-4.18 1.615t-5.415.665q-3.04 0-5.7-.95-2.565-.95-4.465-2.66-1.9-1.805-3.04-4.275-1.045-2.47-1.045-5.605 0-4.18 1.71-6.935 1.71-2.85 4.75-4.465 3.135-1.71 7.41-2.375 4.37-.76 9.595-.76h2.565q1.33 0 2.66.19.285-2.85.285-5.13 0-5.225-2.09-7.315-2.09-2.09-7.6-2.09-1.615 0-3.515.285-1.805.19-3.8.665-1.9.38-3.705 1.045-1.71.57-3.04 1.33zm13.49 38.095q2.66 0 4.75-.665 2.09-.76 3.61-1.805 1.52-1.14 2.47-2.47 1.045-1.33 1.52-2.565v-7.885q-1.33-.095-2.755-.095-1.33-.095-2.66-.095-2.945 0-5.795.38-2.755.285-4.94 1.235-2.09.855-3.42 2.47-1.235 1.52-1.235 3.895 0 3.325 2.375 5.51 2.375 2.09 6.08 2.09zM400.63617 93.564997q-2.85 2.09-6.745 3.135-3.895 1.14-8.17 1.14-5.51 0-9.31-1.71-3.8-1.805-6.27-5.035-2.375-3.325-3.515-7.885-1.045-4.655-1.045-10.26 0-12.065 5.32-18.43 5.32-6.46 15.295-6.46 4.56 0 7.695.76 3.23.665 5.795 1.995l-2.185 6.555q-2.185-1.235-4.845-1.9-2.66-.76-5.7-.76-13.49 0-13.49 18.24 0 3.61.665 6.935.76 3.23 2.375 5.795 1.71 2.47 4.37 3.99 2.755 1.52 6.745 1.52 3.42 0 6.08-1.045 2.755-1.045 4.465-2.375zM423.0725 75.324997h-4.37v21.375h-7.6v-66.5h7.6v40.47l3.895-1.33 14.725-20.14h8.835l-14.535 19.095-3.895 3.135 4.75 3.8 15.865 21.47h-9.405z" baseline-shift="0%"/></g></g></svg>